<svg width="34" height="34" viewBox="0 0 34 34" fill="none" xmlns="http://www.w3.org/2000/svg">
<path d="M16.1025 5.29883L11.9238 9.47949L11.2168 10.1865L24.332 23.3018L25.0391 22.5947L29.2188 18.4141L29.7441 18.9395L28.5 20.2295L27.8174 20.9355L28.5117 21.6309L29.7314 22.8506L27.5479 25.0342L26.8535 25.7295L27.5361 26.4365L28.7803 27.7246L28.2422 28.2627L26.9541 27.0186L26.2471 26.3359L25.5518 27.0303L23.3682 29.2139L22.1484 27.9941L21.4531 27.2998L20.7471 27.9824L19.457 29.2266L18.9316 28.7012L23.1123 24.5215L23.8193 23.8145L10.7041 10.6992L9.99707 11.4062L5.81641 15.585L5.29102 15.0605L6.53613 13.7715L7.21875 13.0645L5.30371 11.1494L7.4873 8.96582L8.18262 8.27148L7.5 7.56445L6.25488 6.27441L6.79199 5.7373L8.08203 6.98242L8.78906 7.66504L9.4834 6.96973L11.667 4.78613L13.582 6.70117L14.2891 6.01855L15.5781 4.77344L16.1025 5.29883Z" stroke="#E5E6E6" stroke-width="2"/>
</svg>
