<svg width="27" height="27" viewBox="0 0 27 27" fill="none" xmlns="http://www.w3.org/2000/svg">
<path d="M19.9688 22.7812C18.7875 22.7812 17.7891 22.3734 16.9734 21.5578C16.1578 20.7422 15.75 19.7437 15.75 18.5625C15.75 17.3812 16.1578 16.3828 16.9734 15.5672C17.7891 14.7516 18.7875 14.3438 19.9688 14.3438C21.15 14.3438 22.1484 14.7516 22.9641 15.5672C23.7797 16.3828 24.1875 17.3812 24.1875 18.5625C24.1875 19.7437 23.7797 20.7422 22.9641 21.5578C22.1484 22.3734 21.15 22.7812 19.9688 22.7812ZM19.9688 20.5312C20.5125 20.5312 20.9766 20.3391 21.3609 19.9547C21.7453 19.5703 21.9375 19.1062 21.9375 18.5625C21.9375 18.0187 21.7453 17.5547 21.3609 17.1703C20.9766 16.7859 20.5125 16.5938 19.9688 16.5938C19.425 16.5938 18.9609 16.7859 18.5766 17.1703C18.1922 17.5547 18 18.0187 18 18.5625C18 19.1062 18.1922 19.5703 18.5766 19.9547C18.9609 20.3391 19.425 20.5312 19.9688 20.5312ZM4.5 19.6875V17.4375H13.5V19.6875H4.5ZM7.03125 12.6562C5.85 12.6562 4.85156 12.2484 4.03594 11.4328C3.22031 10.6172 2.8125 9.61875 2.8125 8.4375C2.8125 7.25625 3.22031 6.25781 4.03594 5.44219C4.85156 4.62656 5.85 4.21875 7.03125 4.21875C8.2125 4.21875 9.21094 4.62656 10.0266 5.44219C10.8422 6.25781 11.25 7.25625 11.25 8.4375C11.25 9.61875 10.8422 10.6172 10.0266 11.4328C9.21094 12.2484 8.2125 12.6562 7.03125 12.6562ZM7.03125 10.4062C7.575 10.4062 8.03906 10.2141 8.42344 9.82969C8.80781 9.44531 9 8.98125 9 8.4375C9 7.89375 8.80781 7.42969 8.42344 7.04531C8.03906 6.66094 7.575 6.46875 7.03125 6.46875C6.4875 6.46875 6.02344 6.66094 5.63906 7.04531C5.25469 7.42969 5.0625 7.89375 5.0625 8.4375C5.0625 8.98125 5.25469 9.44531 5.63906 9.82969C6.02344 10.2141 6.4875 10.4062 7.03125 10.4062ZM13.5 9.5625V7.3125H22.5V9.5625H13.5Z" fill="#1F1F1F"/>
</svg>
