<svg width="22" height="28" viewBox="0 0 22 28" fill="none" xmlns="http://www.w3.org/2000/svg">
<path d="M5.37526 27.5033H0V19.4404C0 17.9622 0.526328 16.6967 1.57898 15.6441C2.63164 14.5914 3.89706 14.0651 5.37526 14.0651H16.1258C17.604 14.0651 18.8694 14.5914 19.9221 15.6441C20.9747 16.6967 21.501 17.9622 21.501 19.4404V27.5033H16.1258H5.37526ZM10.7505 11.3775C9.27232 11.3775 8.0069 10.8511 6.95424 9.79849C5.90159 8.74584 5.37526 7.48041 5.37526 6.00221C5.37526 4.52402 5.90159 3.25859 6.95424 2.20594C8.0069 1.15328 9.27232 0.626953 10.7505 0.626953C12.2287 0.626953 13.4941 1.15328 14.5468 2.20594C15.5995 3.25859 16.1258 4.52402 16.1258 6.00221C16.1258 7.48041 15.5995 8.74584 14.5468 9.79849C13.4941 10.8511 12.2287 11.3775 10.7505 11.3775Z" fill="#E5E6E6"/>
</svg>
