<svg width="22" height="28" viewBox="0 0 22 28" fill="none" xmlns="http://www.w3.org/2000/svg">
<path d="M5.375 15.3159H16.126C17.2699 15.316 18.218 15.7088 19.0381 16.5288C19.8581 17.3489 20.251 18.2969 20.251 19.4409V26.2534H1.25V19.4409C1.25 18.297 1.6429 17.3489 2.46289 16.5288C3.28293 15.7088 4.23108 15.316 5.375 15.3159ZM10.751 1.87744C11.8948 1.87755 12.8431 2.27034 13.6631 3.09033C14.4831 3.91035 14.8759 4.85856 14.876 6.00244C14.876 7.14648 14.4832 8.09542 13.6631 8.91553C12.8431 9.73543 11.8948 10.1283 10.751 10.1284C9.60698 10.1284 8.65797 9.73557 7.83789 8.91553C7.01779 8.09542 6.625 7.14648 6.625 6.00244C6.62506 4.85858 7.01794 3.91035 7.83789 3.09033C8.658 2.27023 9.60694 1.87744 10.751 1.87744Z" stroke="#E5E6E6" stroke-width="2.5"/>
</svg>
