<svg width="34" height="34" viewBox="0 0 34 34" fill="none" xmlns="http://www.w3.org/2000/svg">
<path d="M12.0205 3.01807L13.6006 4.59717L15.2432 3.01221L15.5967 2.67041L18.2246 5.29834L17.8711 5.65283L13.3379 10.1851L24.3311 21.1792L28.8652 16.646L29.2188 16.2925L31.5 18.5737L31.8467 18.9214L31.5059 19.2739L29.9189 20.9165L31.5 22.4966L31.8535 22.8501L31.5 23.2036L28.9561 25.7466L30.542 27.3901L30.8838 27.7437L30.5361 28.0903L28.6084 30.0181L28.2617 30.3657L27.9082 30.0239L26.2646 28.438L23.7217 30.9819L23.3682 31.3354L23.0146 30.9819L21.4346 29.4009L19.792 30.9878L19.4395 31.3286L19.0918 30.9819L16.8105 28.7007L17.1641 28.3472L21.6973 23.813L10.7031 12.8198L6.1709 17.353L5.81641 17.7065L3.18848 15.0786L3.53027 14.7251L5.11523 13.0825L3.53613 11.5024L3.18262 11.1489L3.53613 10.7954L6.0791 8.25146L4.49316 6.60986L4.15234 6.25635L6.77441 3.63428L7.12793 3.9751L8.76953 5.56104L11.3135 3.01807L11.667 2.66455L12.0205 3.01807Z" fill="white" stroke="white"/>
</svg>
