<svg width="34" height="34" viewBox="0 0 34 34" fill="none" xmlns="http://www.w3.org/2000/svg">
<path d="M19.4451 30.6276L17.5179 28.7004L22.4048 23.8135L10.7038 12.1124L5.81688 16.9993L3.88965 15.0721L5.81688 13.0761L3.88965 11.1488L6.78049 8.25799L4.85326 6.26193L6.78049 4.33471L8.77655 6.26193L11.6674 3.37109L13.5946 5.29832L15.5907 3.37109L17.5179 5.29832L12.631 10.1852L24.332 21.8862L29.2189 16.9993L31.1461 18.9266L29.2189 20.9226L31.1461 22.8499L28.2553 25.7407L30.1825 27.7367L28.2553 29.664L26.2592 27.7367L23.3684 30.6276L21.4412 28.7004L19.4451 30.6276Z" fill="#E5E6E6"/>
</svg>
