<svg width="11" height="11" viewBox="0 0 11 11" fill="none" xmlns="http://www.w3.org/2000/svg">
<path d="M5.49967 7.12467L7.66634 4.95801H3.33301L5.49967 7.12467ZM5.49967 10.9163C4.75037 10.9163 4.0462 10.7742 3.38717 10.4898C2.72815 10.2054 2.15488 9.81947 1.66738 9.33197C1.17988 8.84447 0.793945 8.2712 0.50957 7.61217C0.225195 6.95315 0.0830078 6.24898 0.0830078 5.49967C0.0830078 4.75037 0.225195 4.0462 0.50957 3.38717C0.793945 2.72815 1.17988 2.15488 1.66738 1.66738C2.15488 1.17988 2.72815 0.793945 3.38717 0.50957C4.0462 0.225195 4.75037 0.0830078 5.49967 0.0830078C6.24898 0.0830078 6.95315 0.225195 7.61217 0.50957C8.2712 0.793945 8.84447 1.17988 9.33197 1.66738C9.81947 2.15488 10.2054 2.72815 10.4898 3.38717C10.7742 4.0462 10.9163 4.75037 10.9163 5.49967C10.9163 6.24898 10.7742 6.95315 10.4898 7.61217C10.2054 8.2712 9.81947 8.84447 9.33197 9.33197C8.84447 9.81947 8.2712 10.2054 7.61217 10.4898C6.95315 10.7742 6.24898 10.9163 5.49967 10.9163ZM5.49967 9.83301C6.7094 9.83301 7.73405 9.41322 8.57363 8.57363C9.41322 7.73405 9.83301 6.7094 9.83301 5.49967C9.83301 4.28995 9.41322 3.2653 8.57363 2.42572C7.73405 1.58613 6.7094 1.16634 5.49967 1.16634C4.28995 1.16634 3.2653 1.58613 2.42572 2.42572C1.58613 3.2653 1.16634 4.28995 1.16634 5.49967C1.16634 6.7094 1.58613 7.73405 2.42572 8.57363C3.2653 9.41322 4.28995 9.83301 5.49967 9.83301Z" fill="#848282"/>
</svg>
