<svg width="25" height="27" viewBox="0 0 25 27" fill="none" xmlns="http://www.w3.org/2000/svg">
<path d="M2.7 27C1.9575 27 1.32187 26.7356 0.793125 26.2069C0.264375 25.6781 0 25.0425 0 24.3V5.4C0 4.6575 0.264375 4.02188 0.793125 3.49313C1.32187 2.96438 1.9575 2.7 2.7 2.7H4.05V0H6.75V2.7H17.55V0H20.25V2.7H21.6C22.3425 2.7 22.9781 2.96438 23.5069 3.49313C24.0356 4.02188 24.3 4.6575 24.3 5.4V24.3C24.3 25.0425 24.0356 25.6781 23.5069 26.2069C22.9781 26.7356 22.3425 27 21.6 27H2.7ZM2.7 24.3H21.6V10.8H2.7V24.3ZM2.7 8.1H21.6V5.4H2.7V8.1ZM12.15 16.2C11.7675 16.2 11.4469 16.0706 11.1881 15.8119C10.9294 15.5531 10.8 15.2325 10.8 14.85C10.8 14.4675 10.9294 14.1469 11.1881 13.8881C11.4469 13.6294 11.7675 13.5 12.15 13.5C12.5325 13.5 12.8531 13.6294 13.1119 13.8881C13.3706 14.1469 13.5 14.4675 13.5 14.85C13.5 15.2325 13.3706 15.5531 13.1119 15.8119C12.8531 16.0706 12.5325 16.2 12.15 16.2ZM6.75 16.2C6.3675 16.2 6.04687 16.0706 5.78812 15.8119C5.52937 15.5531 5.4 15.2325 5.4 14.85C5.4 14.4675 5.52937 14.1469 5.78812 13.8881C6.04687 13.6294 6.3675 13.5 6.75 13.5C7.1325 13.5 7.45312 13.6294 7.71187 13.8881C7.97062 14.1469 8.1 14.4675 8.1 14.85C8.1 15.2325 7.97062 15.5531 7.71187 15.8119C7.45312 16.0706 7.1325 16.2 6.75 16.2ZM17.55 16.2C17.1675 16.2 16.8469 16.0706 16.5881 15.8119C16.3294 15.5531 16.2 15.2325 16.2 14.85C16.2 14.4675 16.3294 14.1469 16.5881 13.8881C16.8469 13.6294 17.1675 13.5 17.55 13.5C17.9325 13.5 18.2531 13.6294 18.5119 13.8881C18.7706 14.1469 18.9 14.4675 18.9 14.85C18.9 15.2325 18.7706 15.5531 18.5119 15.8119C18.2531 16.0706 17.9325 16.2 17.55 16.2ZM12.15 21.6C11.7675 21.6 11.4469 21.4706 11.1881 21.2119C10.9294 20.9531 10.8 20.6325 10.8 20.25C10.8 19.8675 10.9294 19.5469 11.1881 19.2881C11.4469 19.0294 11.7675 18.9 12.15 18.9C12.5325 18.9 12.8531 19.0294 13.1119 19.2881C13.3706 19.5469 13.5 19.8675 13.5 20.25C13.5 20.6325 13.3706 20.9531 13.1119 21.2119C12.8531 21.4706 12.5325 21.6 12.15 21.6ZM6.75 21.6C6.3675 21.6 6.04687 21.4706 5.78812 21.2119C5.52937 20.9531 5.4 20.6325 5.4 20.25C5.4 19.8675 5.52937 19.5469 5.78812 19.2881C6.04687 19.0294 6.3675 18.9 6.75 18.9C7.1325 18.9 7.45312 19.0294 7.71187 19.2881C7.97062 19.5469 8.1 19.8675 8.1 20.25C8.1 20.6325 7.97062 20.9531 7.71187 21.2119C7.45312 21.4706 7.1325 21.6 6.75 21.6ZM17.55 21.6C17.1675 21.6 16.8469 21.4706 16.5881 21.2119C16.3294 20.9531 16.2 20.6325 16.2 20.25C16.2 19.8675 16.3294 19.5469 16.5881 19.2881C16.8469 19.0294 17.1675 18.9 17.55 18.9C17.9325 18.9 18.2531 19.0294 18.5119 19.2881C18.7706 19.5469 18.9 19.8675 18.9 20.25C18.9 20.6325 18.7706 20.9531 18.5119 21.2119C18.2531 21.4706 17.9325 21.6 17.55 21.6Z" fill="white"/>
<path fill-rule="evenodd" clip-rule="evenodd" d="M2.7 24.3H21.6V10.8H2.7V24.3ZM11.1881 15.8119C11.4469 16.0706 11.7675 16.2 12.15 16.2C12.5325 16.2 12.8531 16.0706 13.1119 15.8119C13.3706 15.5531 13.5 15.2325 13.5 14.85C13.5 14.4675 13.3706 14.1469 13.1119 13.8881C12.8531 13.6294 12.5325 13.5 12.15 13.5C11.7675 13.5 11.4469 13.6294 11.1881 13.8881C10.9294 14.1469 10.8 14.4675 10.8 14.85C10.8 15.2325 10.9294 15.5531 11.1881 15.8119ZM5.78812 15.8119C6.04687 16.0706 6.3675 16.2 6.75 16.2C7.1325 16.2 7.45312 16.0706 7.71187 15.8119C7.97062 15.5531 8.1 15.2325 8.1 14.85C8.1 14.4675 7.97062 14.1469 7.71187 13.8881C7.45312 13.6294 7.1325 13.5 6.75 13.5C6.3675 13.5 6.04687 13.6294 5.78812 13.8881C5.52937 14.1469 5.4 14.4675 5.4 14.85C5.4 15.2325 5.52937 15.5531 5.78812 15.8119ZM16.5881 15.8119C16.8469 16.0706 17.1675 16.2 17.55 16.2C17.9325 16.2 18.2531 16.0706 18.5119 15.8119C18.7706 15.5531 18.9 15.2325 18.9 14.85C18.9 14.4675 18.7706 14.1469 18.5119 13.8881C18.2531 13.6294 17.9325 13.5 17.55 13.5C17.1675 13.5 16.8469 13.6294 16.5881 13.8881C16.3294 14.1469 16.2 14.4675 16.2 14.85C16.2 15.2325 16.3294 15.5531 16.5881 15.8119ZM11.1881 21.2119C11.4469 21.4706 11.7675 21.6 12.15 21.6C12.5325 21.6 12.8531 21.4706 13.1119 21.2119C13.3706 20.9531 13.5 20.6325 13.5 20.25C13.5 19.8675 13.3706 19.5469 13.1119 19.2881C12.8531 19.0294 12.5325 18.9 12.15 18.9C11.7675 18.9 11.4469 19.0294 11.1881 19.2881C10.9294 19.5469 10.8 19.8675 10.8 20.25C10.8 20.6325 10.9294 20.9531 11.1881 21.2119ZM5.78812 21.2119C6.04687 21.4706 6.3675 21.6 6.75 21.6C7.1325 21.6 7.45312 21.4706 7.71187 21.2119C7.97062 20.9531 8.1 20.6325 8.1 20.25C8.1 19.8675 7.97062 19.5469 7.71187 19.2881C7.45312 19.0294 7.1325 18.9 6.75 18.9C6.3675 18.9 6.04687 19.0294 5.78812 19.2881C5.52937 19.5469 5.4 19.8675 5.4 20.25C5.4 20.6325 5.52937 20.9531 5.78812 21.2119ZM16.5881 21.2119C16.8469 21.4706 17.1675 21.6 17.55 21.6C17.9325 21.6 18.2531 21.4706 18.5119 21.2119C18.7706 20.9531 18.9 20.6325 18.9 20.25C18.9 19.8675 18.7706 19.5469 18.5119 19.2881C18.2531 19.0294 17.9325 18.9 17.55 18.9C17.1675 18.9 16.8469 19.0294 16.5881 19.2881C16.3294 19.5469 16.2 19.8675 16.2 20.25C16.2 20.6325 16.3294 20.9531 16.5881 21.2119Z" fill="white"/>
</svg>
